<svg width="36" height="37" viewBox="0 0 36 37" fill="none" xmlns="http://www.w3.org/2000/svg">
<g clip-path="url(#clip0)">
<path d="M21.1045 7.35288C20.1053 9.26608 19.1315 11.1448 19.1315 12.3345C18.5359 12.8141 17.5684 12.8387 17.0137 12.4723C17.0144 12.3439 17.0238 12.2156 17.0418 12.0884L17.1191 11.6799C17.7548 8.9757 21.0616 4.30202 21.1059 1.85796C21.1078 1.5763 21.2206 1.30675 21.4199 1.10765C21.6191 0.908552 21.8887 0.795919 22.1704 0.794132C22.3086 0.793747 22.4455 0.821119 22.5729 0.874625C22.7003 0.928131 22.8157 1.00668 22.9122 1.10562C23.1084 1.30827 23.223 1.57611 23.2342 1.85796C23.294 3.17702 22.1852 5.28429 21.1052 7.35148C21.1045 7.35218 21.1045 7.35218 21.1045 7.35288Z" fill="#E29454"/>
<path d="M17.8917 12.4723C17.8925 12.3439 17.9019 12.2156 17.9199 12.0884L17.9972 11.6799C18.6329 8.97569 21.9397 4.30202 21.9839 1.85796C21.9865 1.65447 22.0464 1.45584 22.1568 1.28486C22.2671 1.11388 22.4235 0.977473 22.6078 0.891301C22.4709 0.827178 22.3216 0.794001 22.1704 0.794129C21.8887 0.795915 21.6191 0.908548 21.4199 1.10765C21.2206 1.30675 21.1078 1.5763 21.1059 1.85796C21.0616 4.30202 17.7548 8.97569 17.1191 11.6799L17.0418 12.0884C17.0238 12.2156 17.0144 12.3439 17.0137 12.4723C17.3707 12.7081 17.8984 12.7809 18.3882 12.6757C18.2118 12.6383 18.0437 12.5694 17.8917 12.4723Z" fill="#BF7A47"/>
<path d="M28.6218 5.63584C28.6458 5.67868 28.66 5.72627 28.6636 5.77524C28.6671 5.82421 28.6598 5.87336 28.6422 5.91919L28.2864 6.84662C27.9649 7.6862 27.4563 8.44149 26.7993 9.05513C26.5119 8.93779 26.2177 8.838 25.9183 8.7563C22.4526 7.80638 20.533 10.9297 19.2498 12.2262C19.2117 12.2647 19.1713 12.3009 19.1289 12.3345C19.1289 11.1448 20.1027 9.26607 21.1019 7.35287C21.1019 7.35216 21.1019 7.35216 21.1026 7.35146C22.5081 5.23857 25.0148 4.70701 27.3962 5.24068L28.3898 5.46287C28.4385 5.4737 28.4843 5.49471 28.5243 5.52452C28.5643 5.55434 28.5975 5.59227 28.6218 5.63584Z" fill="#8DC63F"/>
<path d="M28.3898 5.46288L28.2413 5.42969C27.9416 5.80059 27.6276 6.17816 27.3119 6.55736C27.3119 6.55799 27.3119 6.55799 27.3109 6.55856C25.5836 8.23551 23.189 8.31116 21.0569 7.43901C20.0737 9.32233 19.1289 11.1627 19.1289 12.3345C19.1713 12.3009 19.2117 12.2647 19.2498 12.2262C20.533 10.9297 22.4526 7.80639 25.9183 8.75631C26.2177 8.838 26.5119 8.9378 26.7993 9.05514C27.4563 8.4415 27.9649 7.68621 28.2864 6.84663L28.6422 5.9192C28.6598 5.87337 28.6671 5.82422 28.6636 5.77525C28.66 5.72628 28.6458 5.67869 28.6218 5.63584C28.5975 5.59228 28.5643 5.55434 28.5243 5.52453C28.4843 5.49472 28.4385 5.47371 28.3898 5.46288Z" fill="#739937"/>
<path d="M17.0409 12.0884C17.0229 12.2156 17.0135 12.3439 17.0128 12.4723C16.9105 12.4069 16.821 12.3235 16.7484 12.2262C15.7844 10.9051 13.8192 8.18468 10.7297 8.62062C9.94989 7.2228 9.42747 5.07476 9.62645 3.38304L9.77622 2.10335C9.78359 2.04035 9.80445 1.97968 9.83738 1.92547C9.87032 1.87126 9.91455 1.82479 9.96706 1.78923C10.0196 1.75366 10.0791 1.72983 10.1417 1.71937C10.2043 1.7089 10.2683 1.71204 10.3296 1.72858L11.5741 2.06257C13.3928 2.55148 14.975 3.67826 16.0318 5.23715C17.0885 6.79604 17.5493 8.68302 17.3299 10.5535L17.1182 11.6799C17.0845 11.8219 17.0587 11.9581 17.0409 12.0884Z" fill="#8DC63F"/>
<path d="M11.8945 2.15601C12.1375 2.25951 12.3904 2.35506 12.6512 2.43726C12.4039 2.33062 12.1514 2.23674 11.8945 2.15601Z" fill="#6E891A"/>
<path d="M9.89294 2.78777L9.76905 2.16522L9.62645 3.38303C9.42747 5.07475 9.94989 7.2228 10.7297 8.62061C13.8192 8.18468 15.7844 10.9051 16.7484 12.2262C16.821 12.3235 16.9105 12.4069 17.0128 12.4723C17.0135 12.3439 17.0229 12.2156 17.0409 12.0884C17.0585 11.9583 17.0843 11.8222 17.1182 11.6799L17.3299 10.5535C17.4074 9.8949 17.4011 9.22913 17.3113 8.5721C15.6157 8.53902 13.9766 7.95756 12.6392 6.91479C11.3019 5.87202 10.3384 4.42406 9.89294 2.78777Z" fill="#739937"/>
<path d="M13.1791 6.66589C13.1118 6.666 13.0455 6.64999 12.9857 6.61919C12.9259 6.5884 12.8743 6.54373 12.8353 6.48891L9.64864 2.01915C9.61648 1.97401 9.59352 1.92299 9.58108 1.86898C9.56864 1.81498 9.56696 1.75905 9.57613 1.70439C9.58531 1.64974 9.60516 1.59743 9.63455 1.55044C9.66394 1.50346 9.7023 1.46272 9.74743 1.43056C9.79256 1.3984 9.84359 1.37544 9.89759 1.363C9.9516 1.35056 10.0075 1.34888 10.0622 1.35806C10.1168 1.36723 10.1692 1.38708 10.2161 1.41647C10.2631 1.44586 10.3039 1.48422 10.336 1.52935L13.5226 5.99912C13.5676 6.06218 13.5943 6.13641 13.5999 6.21367C13.6055 6.29092 13.5897 6.36822 13.5542 6.43708C13.5188 6.50595 13.4651 6.56373 13.399 6.60409C13.3328 6.64445 13.2569 6.66583 13.1795 6.66589H13.1791Z" fill="#6E891A"/>
<path d="M26.7999 8.91454C30.9969 10.6267 32.5543 15.6399 32.5543 19.3763C32.5543 26.0307 26.0209 35.1066 21.8225 35.1066C20.7819 35.1066 19.7996 34.5336 19.0873 34.1026C18.463 33.725 17.307 33.8593 16.9105 34.1026C16.201 34.5378 15.1885 35.1066 14.1753 35.1066C9.15851 35.1066 3.48359 26.1334 3.44351 19.3763C3.42452 16.1223 5.21679 9.94813 10.0789 8.61571C10.2924 8.55682 10.5094 8.5115 10.7286 8.48001C13.8181 8.04407 15.7834 10.7645 16.7473 12.0856C16.8199 12.1829 16.9095 12.2663 17.0117 12.3317C17.5665 12.6981 18.534 12.6734 19.1295 12.1939C19.172 12.1603 19.2123 12.1241 19.2505 12.0856C20.5337 10.7891 22.4532 7.66579 25.9189 8.61571C26.2183 8.6974 26.5126 8.7972 26.7999 8.91454Z" fill="#FC324B"/>
<path d="M10.1467 22.454C8.46741 19.4073 6.99858 12.6931 10.885 8.95921C11.0554 8.79488 11.2361 8.6415 11.4259 8.5C11.4557 8.47792 11.4856 8.45676 11.5157 8.43553C11.2524 8.42806 10.9889 8.44293 10.7282 8.47996C10.509 8.51145 10.292 8.55678 10.0785 8.61567C5.21679 9.94809 3.42452 16.1222 3.44351 19.3763C3.48359 26.1333 9.15851 35.1066 14.1753 35.1066C15.1885 35.1066 16.201 34.5378 16.9105 34.1025C17.307 33.8593 18.463 33.725 19.0873 34.1025C19.7996 34.5336 20.7819 35.1066 21.8225 35.1066C23.2863 35.1066 25.034 34.0027 26.6897 32.283C21.6166 33.1892 13.2835 28.144 10.1467 22.454Z" fill="#E01B33"/>
<g opacity="0.6">
<path opacity="0.6" d="M7.24497 21.3374C7.1466 21.3373 7.05137 21.3028 6.97574 21.2399C6.90012 21.1769 6.84886 21.0896 6.83083 20.9929C5.85468 15.7861 8.10545 13.457 8.20192 13.3604C8.28092 13.2819 8.38776 13.2378 8.49912 13.2378C8.61049 13.2378 8.71735 13.2818 8.7964 13.3602C8.87545 13.4386 8.92029 13.5452 8.92112 13.6565C8.92195 13.7679 8.87871 13.8751 8.80084 13.9547C8.78818 13.9678 8.28489 14.4971 7.89543 15.5912C7.53128 16.6143 7.19483 18.355 7.66023 20.8374C7.6716 20.8984 7.6694 20.9611 7.65381 21.021C7.63822 21.081 7.60961 21.1369 7.57001 21.1846C7.53042 21.2323 7.48081 21.2707 7.4247 21.297C7.3686 21.3234 7.30738 21.3371 7.24539 21.3371L7.24497 21.3374Z" fill="#E9E9E9"/>
</g>
<g opacity="0.6">
<path opacity="0.6" d="M7.63799 23.3504C7.54177 23.3503 7.44849 23.3173 7.3736 23.2569C7.29871 23.1965 7.24671 23.1123 7.22624 23.0183L7.03991 22.1633C7.02748 22.1089 7.02595 22.0527 7.03541 21.9977C7.04487 21.9428 7.06513 21.8902 7.09502 21.8432C7.12491 21.7961 7.16383 21.7554 7.20954 21.7235C7.25524 21.6915 7.30683 21.669 7.36131 21.6571C7.41579 21.6452 7.47208 21.6442 7.52694 21.6543C7.58179 21.6643 7.63411 21.6851 7.68088 21.7154C7.72765 21.7458 7.76794 21.7851 7.79941 21.8311C7.83089 21.8772 7.85293 21.929 7.86425 21.9836L8.05058 22.8386C8.06396 22.9002 8.06336 22.964 8.04885 23.0254C8.03433 23.0867 8.00625 23.1441 7.96668 23.1932C7.92711 23.2422 7.87704 23.2818 7.82017 23.3091C7.76329 23.3363 7.70104 23.3504 7.63799 23.3504Z" fill="#E9E9E9"/>
</g>
</g>
<defs>
<clipPath id="clip0">
<rect width="36" height="36" fill="white" transform="translate(0 0.0206909)"/>
</clipPath>
</defs>
</svg>
