<svg width="38" height="39" viewBox="0 0 38 39" fill="none" xmlns="http://www.w3.org/2000/svg">
<path d="M8.26094 1.71286L10.1461 5.2902L10.1684 5.33474L9.26289 5.75778L13.0332 12.3633L12.291 13.009L4.23086 4.22145L8.26094 1.71286Z" fill="#8ECC3E"/>
<path d="M7.47383 2.2027L8.26055 1.71286L10.1457 5.2902L10.168 5.33473L9.32188 5.72809L7.47383 2.2027Z" fill="#74A534"/>
<path d="M11.0141 13.2019L11.875 13.5211L4.63125 8.33319L1.63281 6.88593L0.816406 9.50585L11.0141 13.2019Z" fill="#A6D63C"/>
<path d="M1.63281 6.88593L4.63125 8.33319L11.875 13.5211L8.9582 12.4598L1.40273 7.61327L1.63281 6.88593Z" fill="#7EB239"/>
<path d="M13.5527 11.6434L13.2262 10.6785L11.2371 4.83008L11.8754 4.52579L13.9684 10.2035L14.2949 11.0941C14.2133 11.7695 13.5379 12.6602 12.8105 13.15C13.2113 12.6676 13.5008 12.1109 13.5527 11.6434Z" fill="#8ECC3E"/>
<path d="M20.0682 9.81758C19.5932 9.72852 19.1182 9.67657 18.6358 9.68399C18.1831 9.68399 17.7304 9.7211 17.285 9.7879C16.862 9.87696 16.4464 10.0031 16.053 10.1664L16.0456 10.1738C16.528 10.8641 15.9046 12.4078 14.5835 13.7289C13.2624 15.05 11.7186 15.6734 11.0284 15.191C10.8651 15.5918 10.7315 16.0074 10.6425 16.4379C10.405 18.093 10.4198 20.7871 12.6538 22.368C12.7874 22.4645 12.9284 22.5535 13.0768 22.6426L27.3343 31.252L35.528 36.1801C36.5077 36.7219 37.5839 35.6457 37.0421 34.666L33.6503 29.0477L23.4897 12.2074C22.6288 10.7379 21.3448 10.0773 20.0682 9.81758Z" fill="#FF9C31"/>
<path d="M27.1948 31.1555L26.7198 30.2203L17.7839 12.7047C17.4276 11.9551 16.8858 11.3094 16.203 10.827C16.2253 10.5969 16.1659 10.3668 16.0397 10.1738L16.0471 10.1664C16.4479 10.0031 16.8636 9.87696 17.2792 9.7879C17.7245 9.7211 18.1772 9.69141 18.63 9.68399C19.1124 9.68399 19.5948 9.72852 20.0624 9.81758C21.3389 10.0699 22.6229 10.7379 23.4764 12.2149L33.6444 29.0551L37.0362 34.6734C37.578 35.6531 36.5018 36.7293 35.5221 36.1875L27.3284 31.2445L27.1948 31.1555Z" fill="#ED8115"/>
<path d="M11.0294 15.191C11.7197 15.6734 13.2634 15.05 14.5845 13.7289C15.9056 12.4078 16.5291 10.8641 16.0466 10.1738C16.0244 10.1367 15.9947 10.107 15.965 10.0773C15.5791 9.6914 14.822 9.77304 13.9759 10.2109L14.3025 11.1016C14.1837 12.0738 12.8478 13.4766 11.883 13.5211L11.022 13.2094C10.6287 14.0183 10.5619 14.7383 10.933 15.1094C10.9552 15.1391 10.9923 15.1613 11.0294 15.191Z" fill="#FFB743"/>
<path d="M12.5413 21.9301C14.4561 21.4551 15.792 20.5199 16.8831 18.9019C16.8831 18.9019 16.8831 18.8945 16.8905 18.8945C17.0315 18.6941 17.3061 18.6422 17.5065 18.7758C17.7069 18.9168 17.7588 19.1914 17.6252 19.3918C16.4823 21.0914 15.0944 22.1156 13.1647 22.6797L13.0756 22.6277C12.9272 22.5386 12.7862 22.4496 12.6526 22.3531C12.5264 22.264 12.4151 22.175 12.3038 22.0785C12.3557 22.0117 12.4374 21.9523 12.5413 21.9301Z" fill="#D87012"/>
<path d="M19.1333 14.664C19.0517 14.7457 18.9403 14.7902 18.8216 14.7902C18.7028 14.7902 18.5841 14.7383 18.5024 14.6566C18.3317 14.4785 18.3392 14.1965 18.5173 14.0258C19.5638 13.0238 20.061 11.2351 19.6454 9.95857V9.95115C19.6231 9.88436 19.6231 9.81756 19.6306 9.75076C19.779 9.77303 19.9274 9.79529 20.0685 9.82498C20.2317 9.85467 20.4024 9.8992 20.5657 9.94373C20.9442 11.5023 20.3579 13.484 19.1333 14.664Z" fill="#D87012"/>
<path d="M32.982 31.2148C32.9004 31.2816 32.8039 31.3187 32.7 31.3187C32.5664 31.3187 32.4402 31.2593 32.3586 31.1554C32.2027 30.9625 32.2324 30.6879 32.418 30.532C32.9375 30.109 33.1824 29.6414 33.1973 29.0551C33.1973 28.8992 33.2863 28.7582 33.4125 28.684L33.6426 29.0625L34.0137 29.6711C33.8727 30.2574 33.5313 30.7695 32.982 31.2148Z" fill="#D87012"/>
<path d="M27.319 30.7917C27.9869 30.7769 28.6475 30.2499 29.0112 29.8046C29.167 29.6117 29.449 29.5894 29.6346 29.7452C29.8276 29.9011 29.8498 30.1831 29.694 30.3687C29.2932 30.8585 28.6475 31.3855 27.9127 31.5933L27.3264 31.237L26.9404 31.007C27.0221 30.8808 27.1631 30.7917 27.319 30.7917Z" fill="#D87012"/>
<path d="M22.4291 21.507C23.4385 20.6683 24.2029 19.5699 24.6482 18.3304V18.323C24.7299 18.0929 24.9822 17.9668 25.2197 18.0558C25.4498 18.1375 25.576 18.3898 25.4869 18.6273C24.9896 20.0152 24.1287 21.2472 22.9932 22.1898C22.9115 22.2566 22.815 22.2937 22.7111 22.2937C22.5775 22.2937 22.4514 22.2343 22.3697 22.1304C22.2139 21.9449 22.2361 21.6703 22.4291 21.507Z" fill="#D87012"/>
<path d="M5.87851 5.73555L6.3832 5.23087L13.0332 12.3633L9.26289 5.75782L10.1684 5.33477L11.8754 4.52579L14.2949 11.0941C14.1762 12.059 12.8402 13.4691 11.8754 13.5137L4.63164 8.32579L3.84492 7.76173L5.87851 5.73555Z" fill="#619329"/>
</svg>
