<svg width="49" height="49" viewBox="0 0 49 49" fill="none" xmlns="http://www.w3.org/2000/svg">
<rect width="49" height="49" rx="10" fill="#FEBDFF"/>
<path d="M39.6414 19.6435C39.6876 19.6186 39.7437 19.6215 39.787 19.6509C39.8925 19.7095 40.3991 20.0988 40.8649 22.1415C40.346 22.1631 39.6735 22.2087 38.8906 22.3099C38.8986 22.0798 38.9005 21.8552 38.9011 21.6461C38.9042 20.3678 38.9665 19.9007 39.6414 19.6435Z" fill="white"/>
<path d="M37.5516 24.0472C37.6145 23.8636 37.7734 23.7296 37.9649 23.6986C38.0791 23.6752 38.192 23.6585 38.3172 23.6369C39.3945 23.4549 40.4846 23.3594 41.5772 23.3513H41.6179C41.7685 23.341 41.9017 23.4486 41.9233 23.598C42.0654 24.826 42.01 26.0689 41.7592 27.2794C41.5262 28.1597 41.1652 29.0009 40.6875 29.7762C39.7533 28.0497 38.4694 26.5368 36.918 25.3341C37.1848 24.9349 37.3978 24.5021 37.5516 24.0472Z" fill="white"/>
<path d="M31.596 26.676L34.6888 25.4946C37.9913 26.7932 39.9945 31.0298 40.3647 31.8244C40.0235 32.4143 38.9254 33.9029 36.1022 34.9801C35.1347 35.361 34.115 35.5929 33.0779 35.668H32.2642C31.8335 35.6482 31.4074 35.5715 30.997 35.4398C30.9618 35.2886 30.9143 35.0813 30.8668 34.8321C30.5731 33.3039 30.0604 29.4634 31.596 26.676Z" fill="white"/>
<path d="M29.4909 34.064C28.6605 33.7894 27.8791 33.3844 27.1761 32.864C26.2564 32.0942 25.4735 31.1743 24.8607 30.1433C24.7874 29.9857 24.8336 29.7984 24.9718 29.6929C24.9798 29.6855 24.9878 29.6781 24.9946 29.6707C25.8452 28.9379 26.7509 28.2714 27.7036 27.6774C27.8017 27.6157 27.8998 27.5496 28.0189 27.4805C28.1626 27.387 28.3469 27.383 28.4946 27.4701C28.8808 27.7149 29.2992 27.9049 29.7377 28.0346C29.2561 30.0081 29.1722 32.0577 29.4909 34.064Z" fill="white"/>
<path d="M24.1488 25.6291C24.1681 25.5638 24.2185 25.5123 24.2833 25.4915C24.9372 25.2447 25.2364 25.5396 25.9984 26.5162C26.1292 26.6834 26.2692 26.8623 26.4197 27.0419C25.7473 27.4929 25.1939 27.9112 24.7756 28.248C24.134 26.8179 24.0192 25.9635 24.1488 25.6291Z" fill="white"/>
<path d="M7.44531 26.7038C7.44531 24.2712 7.80808 21.4783 10.6349 21.4783C11.2277 21.4753 11.8171 21.5672 12.3809 21.7504V23.0762C11.8324 22.8289 11.2365 22.7046 10.6349 22.7122C8.82851 22.7122 8.67921 24.6007 8.67921 26.7038C8.67921 28.8403 9.41029 30.1155 10.6349 30.1155C11.2299 30.1094 11.8198 30.0052 12.3809 29.8071V30.1155C12.3835 30.438 12.4095 30.7599 12.4586 31.0786C11.8663 31.2535 11.2525 31.3447 10.6349 31.3494C8.63787 31.3494 7.44531 29.6127 7.44531 26.7038Z" fill="white"/>
<path d="M13.759 31.3624C13.663 30.9537 13.6148 30.5353 13.6152 30.1156V20.2444C13.6152 19.9037 13.8915 19.6274 14.2322 19.6274H27.805C28.1458 19.6274 28.422 19.9037 28.422 20.2444V26.1948C28.0987 26.1647 27.7736 26.229 27.4861 26.3799C27.3078 26.1763 27.1363 25.9666 26.9728 25.7568C26.2738 24.861 25.4057 23.7437 23.8461 24.3378C23.4551 24.4821 23.1463 24.7896 23.0002 25.18C22.6788 26.0085 22.9589 27.314 23.8387 29.1476C23.5162 29.6456 23.5055 30.2837 23.8109 30.7923C24.5014 31.9487 25.3837 32.9791 26.42 33.8394C26.528 33.9227 26.6396 33.9986 26.7513 34.0751C25.7183 35.0976 24.3229 35.6702 22.8695 35.6681H19.1678C16.5783 35.6787 14.3292 33.8884 13.759 31.3624Z" fill="white"/>
<path d="M41.9934 38.1358C41.9934 38.8046 41.1297 39.3697 40.1117 39.3697H11.7938C10.7758 39.3697 9.91211 38.8046 9.91211 38.1358V36.9581C9.97717 36.9189 10.0522 36.8994 10.128 36.9019H41.7775C41.8533 36.8994 41.9283 36.9189 41.9934 36.9581V38.1358Z" fill="white"/>
<path d="M20.4022 16.5427C20.0615 16.5427 19.7852 16.2664 19.7852 15.9257C19.7798 15.2105 20.049 14.5204 20.5373 13.9977C20.8457 13.6918 21.0192 13.2754 21.0192 12.841C21.0192 12.4066 20.8457 11.9901 20.5373 11.6842C20.049 11.1615 19.7798 10.4715 19.7852 9.75623C19.7852 9.4155 20.0615 9.13928 20.4022 9.13928C20.7429 9.13928 21.0191 9.4155 21.0191 9.75623C21.015 10.1914 21.1891 10.6094 21.501 10.913C22.5037 12.0027 22.5037 13.6792 21.501 14.7689C21.1891 15.0725 21.015 15.4905 21.0191 15.9257C21.0191 16.2664 20.7429 16.5427 20.4022 16.5427Z" fill="white"/>
<path d="M16.6991 16.5427C16.3583 16.5427 16.0821 16.2664 16.0821 15.9257C16.0767 15.2105 16.3459 14.5204 16.8342 13.9977C17.1426 13.6918 17.3161 13.2754 17.3161 12.841C17.3161 12.4066 17.1426 11.9901 16.8342 11.6842C16.3459 11.1615 16.0767 10.4715 16.0821 9.75623C16.0821 9.4155 16.3583 9.13928 16.6991 9.13928C17.0398 9.13928 17.316 9.4155 17.316 9.75623C17.3119 10.1914 17.486 10.6094 17.7978 10.913C18.8006 12.0027 18.8006 13.6792 17.7978 14.7689C17.486 15.0725 17.3119 15.4905 17.316 15.9257C17.316 16.2664 17.0398 16.5427 16.6991 16.5427Z" fill="white"/>
<path d="M24.1034 16.5427C23.7626 16.5427 23.4864 16.2664 23.4864 15.9257C23.481 15.2105 23.7502 14.5204 24.2385 13.9977C24.5469 13.6918 24.7204 13.2754 24.7204 12.841C24.7204 12.4066 24.5469 11.9901 24.2385 11.6842C23.7502 11.1615 23.481 10.4715 23.4864 9.75623C23.4864 9.4155 23.7626 9.13928 24.1034 9.13928C24.4441 9.13928 24.7203 9.4155 24.7203 9.75623C24.7162 10.1914 24.8903 10.6094 25.2021 10.913C26.2049 12.0027 26.2049 13.6792 25.2021 14.7689C24.8903 15.0725 24.7162 15.4905 24.7203 15.9257C24.7203 16.2664 24.4441 16.5427 24.1034 16.5427Z" fill="white"/>
</svg>
