<svg width="49" height="49" viewBox="0 0 49 49" fill="none" xmlns="http://www.w3.org/2000/svg">
<rect width="49" height="49" rx="10" fill="#6BAAFF"/>
<path d="M37.0615 20.485C34.4921 17.9156 31.2471 16.2679 27.7273 15.7053C27.8107 15.4373 27.8557 15.1525 27.8557 14.8574C27.8557 13.2818 26.5739 12 24.9983 12C23.4227 12 22.1409 13.2818 22.1409 14.8574C22.1409 15.1525 22.1858 15.4373 22.2693 15.7053C18.7495 16.2679 15.5045 17.9156 12.9351 20.485C10.3698 23.0504 8.7233 26.2891 8.1582 29.8026H41.8386C41.2734 26.2891 39.6269 23.0504 37.0615 20.485Z" fill="white"/>
<path d="M6 32.0292V34.2557H8.58934L9.81299 37.0323H40.187L41.4107 34.2557H44V32.0292H6Z" fill="white"/>
</svg>
